<svg xmlns="http://www.w3.org/2000/svg" viewBox="0 0 2083 2083" width="2083" height="2083">
	<style>
		tspan { white-space:pre }
	</style>
	<path id="{        } " fill="#4c6a8d" d="M360.91 621.31C315.51 621.31 284.9 624.48 264.84 640.31C244.78 656.15 236.34 680.43 236.34 722.66L236.34 927.46C236.34 983.41 212.06 1016.13 170.89 1041.47C212.06 1067.86 236.34 1100.59 236.34 1155.48L236.34 1360.28C236.34 1402.51 244.78 1426.79 264.84 1442.62C284.9 1458.46 315.51 1461.63 360.91 1461.63L360.91 1550.3C279.62 1551.36 222.61 1543.97 186.72 1515.47C150.83 1486.96 134.99 1439.46 134.99 1360.28L134.99 1155.48C134.99 1148.09 131.83 1132.26 122.32 1115.37C112.82 1099.53 95.93 1084.75 67.43 1083.7L67.43 999.24C95.93 999.24 112.82 985.52 122.32 968.63C131.83 952.79 134.99 934.85 134.99 927.46L134.99 722.66C134.99 643.48 150.83 595.98 186.72 567.47C222.61 538.97 279.62 531.58 360.91 532.64ZM1946.52 927.46C1946.52 934.85 1949.69 952.79 1959.19 968.63C1968.69 985.52 1985.58 999.24 2014.09 999.24L2014.09 1083.7C1985.58 1084.75 1968.69 1099.53 1959.19 1115.37C1949.69 1132.26 1946.52 1148.09 1946.52 1155.48L1946.52 1360.28C1946.52 1439.46 1931.75 1486.96 1895.85 1515.47C1859.96 1543.97 1801.9 1551.36 1720.61 1550.3L1720.61 1461.63C1766.01 1461.63 1796.62 1458.46 1816.68 1442.62C1836.74 1426.79 1845.18 1402.51 1845.18 1360.28L1845.18 1155.48C1845.18 1100.59 1869.46 1067.86 1910.63 1041.47C1869.46 1016.13 1845.18 983.41 1845.18 927.46L1845.18 722.66C1845.18 680.43 1836.74 656.15 1816.68 640.31C1796.62 624.48 1766.01 621.31 1720.61 621.31L1720.61 532.64C1801.9 531.58 1859.96 538.97 1895.85 567.47C1931.75 595.98 1946.52 643.48 1946.52 722.66Z" />
	<path id="JSON " fill="#4c6a8d" d="M380.09 1323.49C402.26 1326.66 419.15 1321.38 431.82 1304.49C438.16 1297.1 441.32 1284.43 441.32 1266.48L441.32 652.08L555.33 652.08L555.33 1284.43C555.33 1326.66 544.78 1365.72 518.39 1394.22C491.99 1422.72 447.66 1439.61 380.09 1435.39ZM823.48 860.05C823.48 834.71 822.42 806.21 815.03 784.04C807.64 762.93 796.03 748.15 778.08 748.15C748.52 749.2 739.02 779.82 739.02 825.21C739.02 851.6 750.63 879.05 767.52 908.61C784.42 938.17 806.58 968.78 828.75 1001.51C855.15 1040.57 881.54 1080.68 901.6 1119.74C921.65 1158.8 935.38 1198.92 935.38 1241.15C935.38 1292.87 926.93 1341.43 902.65 1377.33C878.37 1413.22 839.31 1436.45 777.03 1436.45C704.18 1436.45 663.01 1409 639.79 1366.77C616.56 1324.54 611.29 1268.59 611.29 1210.53L723.19 1199.97C723.19 1232.7 724.24 1265.43 732.69 1289.71C740.08 1315.04 752.75 1331.93 777.03 1331.93C810.81 1331.93 823.48 1296.04 823.48 1246.42C823.48 1221.09 810.81 1191.53 793.92 1160.92C784.42 1146.14 774.91 1130.3 764.36 1114.47C742.19 1082.8 717.91 1046.9 692.57 1007.84C667.24 968.78 648.23 928.67 636.62 887.5C630.29 867.44 627.12 846.32 627.12 825.21C627.12 782.98 636.62 737.59 660.9 702.75C685.18 668.97 722.13 644.69 775.97 643.64C844.59 642.58 884.7 671.08 906.87 712.25C929.04 754.48 935.38 806.21 935.38 849.49ZM1293.25 1268.59C1292.19 1300.26 1285.86 1328.77 1274.25 1353.05C1264.75 1374.16 1249.97 1394.22 1228.85 1410.05C1207.74 1426.94 1179.24 1436.45 1141.23 1436.45C1103.23 1436.45 1073.67 1426.94 1052.56 1410.05C1031.44 1394.22 1017.72 1374.16 1008.22 1353.05C996.61 1328.77 990.27 1300.26 989.22 1268.59L989.22 811.49C990.27 780.87 996.61 752.37 1008.22 728.09C1017.72 706.98 1031.44 685.86 1052.56 670.03C1073.67 654.19 1103.23 643.64 1141.23 643.64C1179.24 643.64 1207.74 654.19 1228.85 670.03C1249.97 685.86 1264.75 706.98 1274.25 728.09C1285.86 752.37 1292.19 780.87 1293.25 811.49ZM1179.24 811.49C1179.24 790.37 1175.01 775.59 1164.46 762.93C1159.18 757.65 1150.73 754.48 1141.23 754.48C1121.17 754.48 1111.67 769.26 1107.45 782.98C1104.28 791.43 1103.23 800.93 1103.23 811.49L1103.23 1268.59C1103.23 1290.76 1108.51 1305.54 1119.06 1317.15C1124.34 1322.43 1131.73 1325.6 1141.23 1325.6C1161.29 1325.6 1170.79 1312.93 1175.01 1297.1C1178.18 1289.71 1179.24 1280.21 1179.24 1268.59ZM1490.66 1023.68L1481.16 987.78L1474.82 987.78L1474.82 1428L1370.31 1428L1370.31 652.08L1471.66 652.08L1582.5 1056.4L1592 1092.3L1598.34 1092.3L1598.34 652.08L1702.85 652.08L1702.85 1428L1601.51 1428Z" />
</svg>